<!DOCTYPE svg PUBLIC "-//W3C//DTD SVG 1.1//EN" "http://www.w3.org/Graphics/SVG/1.1/DTD/svg11.dtd"[]><svg xmlns="http://www.w3.org/2000/svg" version="1.1" width="16" height="16" style="shape-rendering:geometricPrecision; text-rendering:geometricPrecision; image-rendering:optimizeQuality; fill-rule:evenodd; clip-rule:evenodd" xmlns:xlink="http://www.w3.org/1999/xlink" viewBox="0 0 601 503"><g><path style="opacity:0.843" fill="#3590b8" d="M 132.5,17.5 C 135.85,17.335 139.183,17.5017 142.5,18C 154.328,23.1489 164.494,30.6489 173,40.5C 183.25,51.7449 191.916,64.0782 199,77.5C 204.391,88.3481 209.391,99.3481 214,110.5C 218.266,122.532 222.1,134.699 225.5,147C 222.144,150.434 219.311,149.934 217,145.5C 206.514,125.016 195.847,104.683 185,84.5C 178.391,73.6019 171.058,63.2686 163,53.5C 158.479,49.3166 153.646,45.4832 148.5,42C 145.167,41.3333 141.833,41.3333 138.5,42C 137.096,43.3368 135.596,44.5035 134,45.5C 126.867,39.3055 124.867,31.6389 128,22.5C 129.758,20.9168 131.258,19.2501 132.5,17.5 Z" /></g><g><path style="opacity:0.873" fill="#3590b8" d="M 83.5,23.5 C 87.7553,23.5842 91.922,24.2509 96,25.5C 104.467,30.9754 112.634,36.8087 120.5,43C 134.028,56.8392 146.528,71.6726 158,87.5C 168.905,104.924 180.072,122.258 191.5,139.5C 194.433,145.803 197.266,152.136 200,158.5C 200.814,160.902 200.647,163.235 199.5,165.5C 198.5,165 197.5,164.5 196.5,164C 190.856,157.936 185.356,151.769 180,145.5C 159.516,113.541 136.016,84.2079 109.5,57.5C 106.155,54.1463 102.155,52.1463 97.5,51.5C 97.3638,59.6556 99.1971,67.3223 103,74.5C 128.21,125.372 164.377,166.538 211.5,198C 199.545,235.847 209.545,266.347 241.5,289.5C 246.252,292.543 251.252,295.043 256.5,297C 280.063,302.279 291.396,292.779 290.5,268.5C 290.098,245.233 281.098,226.233 263.5,211.5C 256.974,206.535 249.641,204.702 241.5,206C 234.896,209.016 231.062,214.183 230,221.5C 229.196,230.215 229.363,238.882 230.5,247.5C 228.865,248.681 227.198,248.681 225.5,247.5C 221.132,239.687 218.465,231.354 217.5,222.5C 221.421,194.059 237.088,184.559 264.5,194C 283.954,204.956 296.954,221.123 303.5,242.5C 308.968,259.48 308.801,276.48 303,293.5C 292.975,312.53 277.142,320.03 255.5,316C 238.056,312.447 223.056,304.447 210.5,292C 185.651,267.107 179.151,237.94 191,204.5C 159.467,182.966 131.801,157.3 108,127.5C 93.5438,107.588 82.5438,85.9209 75,62.5C 73.7846,55.4895 72.618,48.4895 71.5,41.5C 71.6122,34.98 73.9455,29.48 78.5,25C 80.3817,24.8019 82.0484,24.3019 83.5,23.5 Z" /></g><g><path style="opacity:0.869" fill="#3590b8" d="M 409.5,59.5 C 426.413,59.7514 434.413,68.4181 433.5,85.5C 433.333,88.5 433.167,91.5 433,94.5C 432.837,96.676 432.004,98.5093 430.5,100C 429.258,100.311 428.258,99.8114 427.5,98.5C 426.172,92.35 424.339,86.35 422,80.5C 418.625,75.6627 414.792,75.3293 410.5,79.5C 406.73,83.6553 403.73,88.322 401.5,93.5C 436.477,106.072 451.644,131.072 447,168.5C 447.348,173.405 445.182,176.071 440.5,176.5C 438.785,165.339 436.285,154.339 433,143.5C 424.069,124.588 409.236,113.088 388.5,109C 358.872,104.852 333.705,113.352 313,134.5C 304.508,145.483 296.508,156.816 289,168.5C 281.471,178.012 271.638,182.179 259.5,181C 272.109,138.377 299.442,109.044 341.5,93C 354.567,89.4466 367.9,87.6132 381.5,87.5C 385.5,81.8333 389.5,76.1667 393.5,70.5C 396.317,68.1833 398.984,65.6833 401.5,63C 404.401,62.1249 407.068,60.9582 409.5,59.5 Z" /></g><g><path style="opacity:0.884" fill="#3590b8" d="M 391.5,154.5 C 394.25,154.618 396.25,155.951 397.5,158.5C 402.699,168.669 403.866,179.336 401,190.5C 392.843,201.294 387.176,213.294 384,226.5C 382.282,251.265 393.116,267.432 416.5,275C 432.224,275.719 444.057,269.219 452,255.5C 459.153,240.584 463.987,224.917 466.5,208.5C 467.2,196.491 468.034,184.491 469,172.5C 473.118,171.202 477.285,171.202 481.5,172.5C 491.924,194.734 506.257,213.901 524.5,230C 533.359,237.006 543.359,241.172 554.5,242.5C 561.635,243.396 563.468,241.063 560,235.5C 550.939,226.767 541.606,218.434 532,210.5C 531.167,207.182 532.501,205.515 536,205.5C 554.611,214.131 571.611,225.131 587,238.5C 589.395,241.878 591.729,245.211 594,248.5C 594.867,252.956 594.534,257.289 593,261.5C 576.218,271.404 558.718,272.737 540.5,265.5C 525.48,258.646 512.98,248.646 503,235.5C 497.601,228.435 492.601,221.101 488,213.5C 484.397,207.293 481.064,200.96 478,194.5C 479.927,219.263 475.76,242.763 465.5,265C 454.633,283.124 438.633,292.624 417.5,293.5C 379.667,289.167 359.334,268 356.5,230C 357.934,199.768 369.601,174.602 391.5,154.5 Z" /></g><g><path style="opacity:0.898" fill="#3590b8" d="M 171.5,275.5 C 173.144,275.286 174.644,275.62 176,276.5C 176.167,279.167 176.333,281.833 176.5,284.5C 174.069,296.928 173.402,309.428 174.5,322C 175.79,330.616 179.956,337.449 187,342.5C 187.667,343.5 187.667,344.5 187,345.5C 173.725,347.455 162.892,353.622 154.5,364C 148.119,369.191 141.119,373.358 133.5,376.5C 121.532,384.968 111.032,394.968 102,406.5C 92.7533,419.326 83.7533,432.326 75,445.5C 71.1436,449.762 66.9769,453.595 62.5,457C 45.2228,458.444 27.8894,458.944 10.5,458.5C 10.6036,453.187 11.937,448.187 14.5,443.5C 17.3782,439.458 21.0449,436.291 25.5,434C 34.531,431.179 43.8643,429.845 53.5,430C 60.1405,427.696 65.3072,423.529 69,417.5C 76.1471,401.872 85.3138,387.538 96.5,374.5C 107.653,365.09 119.653,356.923 132.5,350C 140.644,343.513 146.978,335.513 151.5,326C 156.889,308.562 163.555,291.728 171.5,275.5 Z" /></g><g><path style="opacity:0.89" fill="#3590b8" d="M 353.5,282.5 C 355.167,282.5 356.833,282.5 358.5,282.5C 358.663,284.857 358.497,287.19 358,289.5C 345.229,301.266 333.562,313.933 323,327.5C 310.906,348.464 299.573,369.797 289,391.5C 282.394,401.933 274.561,411.266 265.5,419.5C 261.249,421.127 256.915,422.46 252.5,423.5C 247.916,422.354 243.249,421.187 238.5,420C 227.81,413.42 217.644,406.253 208,398.5C 205.154,400.257 202.488,402.257 200,404.5C 192.95,412.882 186.284,421.548 180,430.5C 175.587,434.402 170.42,436.736 164.5,437.5C 151.851,438.499 139.184,438.832 126.5,438.5C 126.174,426.944 130.841,418.11 140.5,412C 147.153,410.94 153.819,409.94 160.5,409C 162.377,407.815 164.377,406.815 166.5,406C 174.692,397.743 182.525,389.243 190,380.5C 193.874,376.624 198.041,373.124 202.5,370C 207.237,367.98 211.904,368.146 216.5,370.5C 224.956,377.566 233.623,384.4 242.5,391C 252.765,394.355 261.265,391.855 268,383.5C 270.333,380.5 272.667,377.5 275,374.5C 283.702,361.087 291.868,347.42 299.5,333.5C 314.296,313.036 332.296,296.036 353.5,282.5 Z" /></g></svg>